HIERARCHY
ROOT Hips
{
	OFFSET	0.0000	0.0000	0.0000
	CHANNELS 6 Xposition Yposition Zposition Xrotation Yrotation Zrotation
	JOINT Spine
	{
		OFFSET	0.0000	9.6567	-5.2257
		CHANNELS 3 Xrotation Yrotation Zrotation
		JOINT Spine1
		{
			OFFSET	0.0000	8.8125	0.4604
			CHANNELS 3 Xrotation Yrotation Zrotation
			JOINT Spine2
			{
				OFFSET	0.0000	10.9044	-2.4272
				CHANNELS 3 Xrotation Yrotation Zrotation
				JOINT Neck
				{
					OFFSET	0.0000	24.5727	-0.5110
					CHANNELS 3 Xrotation Yrotation Zrotation
					JOINT Head
					{
						OFFSET	-0.0001	13.8765	3.7744
						CHANNELS 3 Xrotation Yrotation Zrotation
						End Site
						{
							OFFSET	0.0001	19.3889	0.5788
						}
					}
				}
				JOINT LeftShoulder
				{
					OFFSET	2.4808	23.7139	8.1245
					CHANNELS 3 Xrotation Yrotation Zrotation
					JOINT LeftArm
					{
						OFFSET	14.4933	3.4014	-5.5038
						CHANNELS 3 Xrotation Yrotation Zrotation
						JOINT LeftForeArm
						{
							OFFSET	30.7865	-0.1092	-0.2668
							CHANNELS 3 Xrotation Yrotation Zrotation
							JOINT LeftHand
							{
								OFFSET	25.6825	0.0745	-0.1539
								CHANNELS 3 Xrotation Yrotation Zrotation
								JOINT LeftHandIndex1
								{
									OFFSET	9.9538	0.8705	2.7646
									CHANNELS 3 Xrotation Yrotation Zrotation
									JOINT LeftHandIndex2
									{
										OFFSET	3.7232	-0.9079	0.6560
										CHANNELS 3 Xrotation Yrotation Zrotation
										JOINT LeftHandIndex3
										{
											OFFSET	2.5418	-0.6200	0.4480
											CHANNELS 3 Xrotation Yrotation Zrotation
											End Site
											{
												OFFSET	1.8087	-0.5399	0.2934
											}
										}
									}
								}
								JOINT LeftHandMiddle1
								{
									OFFSET	10.1024	1.0053	0.2407
									CHANNELS 3 Xrotation Yrotation Zrotation
									JOINT LeftHandMiddle2
									{
										OFFSET	4.6036	0.0129	-0.0272
										CHANNELS 3 Xrotation Yrotation Zrotation
										JOINT LeftHandMiddle3
										{
											OFFSET	2.5518	0.0078	-0.0155
											CHANNELS 3 Xrotation Yrotation Zrotation
											End Site
											{
												OFFSET	2.2919	-0.1619	0.0031
											}
										}
									}
								}
								JOINT LeftHandRing1
								{
									OFFSET	9.5741	0.6709	-2.2651
									CHANNELS 3 Xrotation Yrotation Zrotation
									JOINT LeftHandRing2
									{
										OFFSET	4.1772	-0.2115	-0.2615
										CHANNELS 3 Xrotation Yrotation Zrotation
										JOINT LeftHandRing3
										{
											OFFSET	2.3804	-0.1198	-0.1495
											CHANNELS 3 Xrotation Yrotation Zrotation
											End Site
											{
												OFFSET	2.1047	-0.2588	-0.0995
											}
										}
									}
								}
								JOINT LeftHandPinky1
								{
									OFFSET	8.8844	-0.6751	-3.9118
									CHANNELS 3 Xrotation Yrotation Zrotation
									JOINT LeftHandPinky2
									{
										OFFSET	2.5694	-0.5358	-0.7093
										CHANNELS 3 Xrotation Yrotation Zrotation
										JOINT LeftHandPinky3
										{
											OFFSET	1.8842	-0.3924	-0.5205
											CHANNELS 3 Xrotation Yrotation Zrotation
											End Site
											{
												OFFSET	1.6723	-0.4595	-0.3837
											}
										}
									}
								}
								JOINT LeftHandThumb1
								{
									OFFSET	2.0591	-1.5585	1.5610
									CHANNELS 3 Xrotation Yrotation Zrotation
									JOINT LeftHandThumb2
									{
										OFFSET	3.8337	-1.2590	2.8904
										CHANNELS 3 Xrotation Yrotation Zrotation
										JOINT LeftHandThumb3
										{
											OFFSET	2.5244	-0.9033	1.8187
											CHANNELS 3 Xrotation Yrotation Zrotation
											End Site
											{
												OFFSET	1.8564	-0.6390	1.2712
											}
										}
									}
								}
							}
						}
					}
				}
				JOINT RightShoulder
				{
					OFFSET	-2.4808	23.7139	8.1245
					CHANNELS 3 Xrotation Yrotation Zrotation
					JOINT RightArm
					{
						OFFSET	-14.4958	3.4020	-5.5048
						CHANNELS 3 Xrotation Yrotation Zrotation
						JOINT RightForeArm
						{
							OFFSET	-30.7865	-0.1091	-0.2668
							CHANNELS 3 Xrotation Yrotation Zrotation
							JOINT RightHand
							{
								OFFSET	-25.6825	0.0745	-0.1538
								CHANNELS 3 Xrotation Yrotation Zrotation
								JOINT RightHandIndex1
								{
									OFFSET	-9.9539	0.8706	2.7647
									CHANNELS 3 Xrotation Yrotation Zrotation
									JOINT RightHandIndex2
									{
										OFFSET	-3.7232	-0.9079	0.6560
										CHANNELS 3 Xrotation Yrotation Zrotation
										JOINT RightHandIndex3
										{
											OFFSET	-2.5417	-0.6201	0.4480
											CHANNELS 3 Xrotation Yrotation Zrotation
											End Site
											{
												OFFSET	-1.8087	-0.5399	0.2934
											}
										}
									}
								}
								JOINT RightHandMiddle1
								{
									OFFSET	-10.1024	1.0053	0.2407
									CHANNELS 3 Xrotation Yrotation Zrotation
									JOINT RightHandMiddle2
									{
										OFFSET	-4.6036	0.0129	-0.0272
										CHANNELS 3 Xrotation Yrotation Zrotation
										JOINT RightHandMiddle3
										{
											OFFSET	-2.5518	0.0078	-0.0156
											CHANNELS 3 Xrotation Yrotation Zrotation
											End Site
											{
												OFFSET	-2.2919	-0.1619	0.0031
											}
										}
									}
								}
								JOINT RightHandRing1
								{
									OFFSET	-9.5741	0.6709	-2.2651
									CHANNELS 3 Xrotation Yrotation Zrotation
									JOINT RightHandRing2
									{
										OFFSET	-4.1772	-0.2115	-0.2615
										CHANNELS 3 Xrotation Yrotation Zrotation
										JOINT RightHandRing3
										{
											OFFSET	-2.3804	-0.1198	-0.1495
											CHANNELS 3 Xrotation Yrotation Zrotation
											End Site
											{
												OFFSET	-2.1047	-0.2588	-0.0995
											}
										}
									}
								}
								JOINT RightHandPinky1
								{
									OFFSET	-8.8844	-0.6751	-3.9117
									CHANNELS 3 Xrotation Yrotation Zrotation
									JOINT RightHandPinky2
									{
										OFFSET	-2.5694	-0.5358	-0.7093
										CHANNELS 3 Xrotation Yrotation Zrotation
										JOINT RightHandPinky3
										{
											OFFSET	-1.8841	-0.3923	-0.5205
											CHANNELS 3 Xrotation Yrotation Zrotation
											End Site
											{
												OFFSET	-1.6723	-0.4595	-0.3837
											}
										}
									}
								}
								JOINT RightHandThumb1
								{
									OFFSET	-2.0591	-1.5584	1.5609
									CHANNELS 3 Xrotation Yrotation Zrotation
									JOINT RightHandThumb2
									{
										OFFSET	-3.8336	-1.2592	2.8905
										CHANNELS 3 Xrotation Yrotation Zrotation
										JOINT RightHandThumb3
										{
											OFFSET	-2.5244	-0.9032	1.8187
											CHANNELS 3 Xrotation Yrotation Zrotation
											End Site
											{
												OFFSET	-1.8564	-0.6390	1.2712
											}
										}
									}
								}
							}
						}
					}
				}
			}
		}
	}
	JOINT RightUpLeg
	{
		OFFSET	-10.3303	4.3651	-0.8515
		CHANNELS 3 Xrotation Yrotation Zrotation
		JOINT RightLeg
		{
			OFFSET	-0.8266	-44.9320	0.0000
			CHANNELS 3 Xrotation Yrotation Zrotation
			JOINT RightFoot
			{
				OFFSET	0.0000	-44.1205	0.0000
				CHANNELS 3 Xrotation Yrotation Zrotation
				JOINT RightToeBase
				{
					OFFSET	0.0000	-4.8492	10.1404
					CHANNELS 3 Xrotation Yrotation Zrotation
					End Site
					{
						OFFSET	0.0000	0.0000	6.8028
					}
				}
			}
		}
	}
	JOINT LeftUpLeg
	{
		OFFSET	10.3301	4.3654	-0.8515
		CHANNELS 3 Xrotation Yrotation Zrotation
		JOINT LeftLeg
		{
			OFFSET	0.8267	-44.9323	0.0000
			CHANNELS 3 Xrotation Yrotation Zrotation
			JOINT LeftFoot
			{
				OFFSET	0.0000	-44.1205	0.0000
				CHANNELS 3 Xrotation Yrotation Zrotation
				JOINT LeftToeBase
				{
					OFFSET	0.0000	-4.8493	10.1404
					CHANNELS 3 Xrotation Yrotation Zrotation
					End Site
					{
						OFFSET	0.0000	0.0000	6.8028
					}
				}
			}
		}
	}
}
MOTION
Frames:	8
Frame Time: 0.0333333000
	0.0000	92.0557	3.0206	0.000000	0.000000	0.000000	0.000000	0.000000	0.000000	0.000000	0.000000	0.000000	0.000000	0.000000	0.000000	0.000000	0.000000	0.000000	0.000000	0.000000	0.000000	0.000000	0.000000	0.000000	0.000000	0.000000	0.000000	0.000000	0.000000	0.000000	0.000000	0.000000	0.000000	0.000000	0.000000	0.000000	0.000000	0.000000	0.000000	0.000000	0.000000	0.000000	0.000000	0.000000	0.000000	0.000000	0.000000	0.000000	0.000000	0.000000	0.000000	0.000000	0.000000	0.000000	0.000000	0.000000	0.000000	0.000000	0.000000	0.000000	0.000000	0.000000	0.000000	0.000000	0.000000	0.000000	0.000000	0.000000	0.000000	0.000000	0.000000	0.000000	0.000000	0.000000	0.000000	0.000000	0.000000	0.000000	0.000000	0.000000	0.000000	0.000000	0.000000	0.000000	0.000000	0.000000	0.000000	0.000000	0.000000	0.000000	0.000000	0.000000	0.000000	0.000000	0.000000	0.000000	0.000000	0.000000	0.000000	0.000000	0.000000	0.000000	0.000000	0.000000	0.000000	0.000000	0.000000	0.000000	0.000000	0.000000	0.000000	0.000000	0.000000	0.000000	0.000000	0.000000	0.000000	0.000000	0.000000	0.000000	0.000000	0.000000	0.000000	0.000000	0.000000	0.000000	0.000000	0.000000	0.000000	0.000000	0.000000	0.000000	0.000000	0.000000	0.000000	0.000000	0.000000	0.000000	0.000000	0.000000	0.000000	0.000000	0.000000	0.000000	0.000000	0.000000	0.000000	0.000000	0.000000	0.000000	0.000000	0.000000	0.000000	0.000000	0.000000	0.000000	0.000000	0.000000	0.000000
	-58.2608	95.1618	-136.7528	-2.362316	13.133920	0.672771	0.000000	0.000000	0.000000	2.534313	1.907013	-1.235624	8.612790	6.168903	-4.392234	1.884601	-1.366930	5.511700	-5.870254	-2.060786	23.874920	-0.000001	-0.000002	-14.198200	28.390200	-34.755680	-45.239300	0.143813	-42.868000	0.042824	0.000001	0.000001	0.000000	0.000000	0.000000	0.000000	0.000000	0.000000	0.000000	0.000000	0.000000	0.000000	0.000000	0.000000	0.000000	0.000000	0.000000	0.000000	0.000000	0.000000	0.000000	0.000000	0.000000	0.000000	0.000000	0.000000	0.000000	0.000000	0.000000	0.000000	0.000000	0.000000	0.000000	0.000000	0.000000	0.000000	0.000000	0.000000	0.000000	0.000000	0.000000	0.000000	0.000000	0.000000	0.000000	0.000000	0.000000	0.000000	-0.000001	0.000000	15.378690	17.416630	-3.327645	70.268060	0.188841	51.070560	-0.072152	-0.000001	-0.000003	0.000000	0.000000	0.000000	0.000000	0.000000	0.000000	0.000000	0.000000	0.000000	0.000000	0.000000	0.000000	0.000000	0.000000	0.000000	0.000000	0.000000	0.000000	0.000000	0.000000	0.000000	0.000000	0.000000	0.000000	0.000000	0.000000	0.000000	0.000000	0.000000	0.000000	0.000000	0.000000	0.000000	0.000000	0.000000	0.000000	0.000000	0.000000	0.000000	0.000000	0.000000	0.000000	0.000000	0.000000	0.000000	0.000000	-11.210950	-0.764524	-0.060159	12.774640	0.000000	0.000000	8.372949	-3.739389	-1.442495	0.000000	0.000000	0.000000	-3.021562	-1.007134	3.786793	-0.959546	0.000001	0.000000	2.296844	-0.527914	-0.276808	0.000000	0.000000	0.000000
	-57.1391	95.1256	-136.9566	-1.571313	18.656330	0.127453	0.000000	0.000001	0.000000	1.833251	1.131899	-0.887753	6.176557	3.674258	-3.073536	0.995308	-0.897851	3.478685	-3.897552	-1.360733	20.427920	-0.000001	0.000000	-13.270990	30.498590	-34.529720	-46.187010	0.150790	-43.489750	0.043261	-0.000003	0.000002	0.000000	0.000004	-0.000004	0.000000	0.000000	0.000000	0.000000	0.000000	0.000000	0.000000	0.000004	-0.000004	0.000000	0.000000	0.000000	0.000000	0.000000	0.000000	0.000000	0.000004	-0.000004	0.000000	0.000000	0.000000	0.000000	0.000000	0.000000	0.000000	0.000004	-0.000004	0.000000	0.000000	0.000000	0.000000	0.000000	0.000000	0.000000	0.000004	-0.000004	0.000000	0.000000	0.000000	0.000000	0.000000	0.000000	0.000000	0.000000	0.000000	12.939580	15.378350	-2.708516	66.531270	0.138840	40.945460	-0.035715	0.000001	-0.000001	0.000000	0.000000	0.000000	-0.000001	0.000000	0.000000	-0.000001	0.000000	0.000000	-0.000001	0.000000	0.000000	-0.000001	0.000000	0.000000	-0.000001	0.000000	0.000000	-0.000001	0.000000	0.000000	-0.000001	0.000000	0.000000	-0.000001	0.000000	0.000000	-0.000001	0.000000	0.000000	-0.000001	0.000000	0.000000	-0.000001	0.000000	0.000000	-0.000001	0.000000	0.000000	-0.000001	0.000000	0.000000	-0.000001	0.000000	0.000000	-0.000001	-11.601350	-5.020788	-1.653524	13.440790	-0.000002	0.000000	8.544346	-4.204093	-1.628183	-0.000001	-0.000001	0.000001	-5.088920	-0.583630	3.382575	0.617989	0.000000	0.000000	0.737920	-1.095130	-0.533725	0.000000	-0.000002	0.000000
	-56.1294	95.2165	-137.1362	-0.767546	23.262900	-0.273070	0.000000	0.000000	0.000000	1.211287	0.532529	-0.644335	4.058756	1.722510	-2.186694	0.543282	-0.561321	2.112975	-2.064662	-0.825228	16.939810	0.000000	-0.000002	-12.433500	32.751300	-34.730350	-46.501400	0.155126	-43.936370	0.043854	0.000000	0.000000	0.000000	0.000000	0.000000	0.000000	0.000000	0.000000	0.000000	0.000000	0.000000	0.000000	0.000000	0.000000	0.000000	0.000000	0.000000	0.000000	0.000000	0.000000	0.000000	0.000000	0.000000	0.000000	0.000000	0.000000	0.000000	0.000000	0.000000	0.000000	0.000000	0.000000	0.000000	0.000000	0.000000	0.000000	0.000000	0.000000	0.000000	0.000000	0.000000	0.000000	0.000000	0.000000	0.000000	0.000000	0.000000	0.000000	0.000000	-0.000002	10.834170	13.727420	-2.483279	62.396610	0.103962	31.877000	-0.016163	0.000003	-0.000001	-0.000005	0.000000	0.000001	0.000001	0.000000	0.000006	0.000010	0.000000	-0.000003	-0.000004	0.000000	0.000001	0.000001	0.000000	0.000006	0.000010	0.000000	-0.000003	-0.000004	0.000000	0.000001	0.000001	0.000000	0.000006	0.000010	0.000000	-0.000003	-0.000004	0.000000	0.000001	0.000001	0.000000	0.000006	0.000010	0.000000	-0.000003	-0.000004	0.000000	0.000001	0.000001	0.000000	0.000006	0.000010	0.000000	-0.000003	-0.000004	-12.011280	-8.456531	-3.118612	13.881750	0.000000	0.000000	8.942176	-4.513645	-1.740434	-0.000001	0.000000	0.000000	-6.765449	-0.176954	2.818649	1.739502	0.000001	0.000000	-0.097080	-1.750222	-0.840409	0.000000	0.000001	0.000000
	-55.3127	95.4100	-137.2674	-0.160885	26.388770	-0.454298	0.000000	0.000000	0.000000	0.769007	0.185961	-0.523234	2.567699	0.590568	-1.754385	0.490820	-0.403119	1.505924	-0.538485	-0.479898	13.737540	0.000000	0.000000	-11.825930	34.623490	-35.232260	-46.217580	0.155816	-43.978250	0.043848	0.000001	0.000001	0.000000	-0.000002	0.000002	0.000000	0.000000	-0.000002	-0.000005	-0.000002	0.000000	-0.000005	-0.000002	0.000002	0.000000	0.000000	-0.000002	-0.000005	-0.000002	0.000000	-0.000005	-0.000002	0.000002	0.000000	0.000000	-0.000002	-0.000005	-0.000002	0.000000	-0.000005	-0.000002	0.000002	0.000000	0.000000	-0.000002	-0.000005	-0.000002	0.000000	-0.000005	-0.000002	0.000002	0.000000	0.000000	-0.000002	-0.000005	-0.000002	0.000000	-0.000005	0.000000	-0.000001	9.345895	12.415710	-3.715553	57.394870	0.081836	25.731700	-0.007739	0.000000	0.000001	0.000002	0.000000	0.000001	0.000002	0.000000	0.000001	0.000002	0.000000	0.000001	0.000002	0.000000	0.000001	0.000002	0.000000	0.000001	0.000002	0.000000	0.000001	0.000002	0.000000	0.000001	0.000002	0.000000	0.000001	0.000002	0.000000	0.000001	0.000002	0.000000	0.000001	0.000002	0.000000	0.000001	0.000002	0.000000	0.000001	0.000002	0.000000	0.000001	0.000002	0.000000	0.000001	0.000002	0.000000	0.000001	0.000002	-12.275620	-10.594800	-4.244016	14.054530	0.000000	0.000000	9.737621	-4.794915	-1.815438	-0.012499	-0.000001	0.000000	-7.738072	0.139554	2.181843	2.184320	-0.000001	0.000000	-0.102848	-2.383518	-1.138875	0.000000	-0.000001	0.000000
	-54.6788	95.5998	-137.3496	0.172353	28.253220	-0.529392	0.000000	0.000000	0.000000	0.520896	0.024755	-0.475155	1.734481	0.064157	-1.585056	0.550167	-0.346132	1.296219	0.547171	-0.278256	11.046030	0.000000	0.000001	-11.475890	35.685250	-35.700030	-45.718180	0.154104	-43.502630	0.042327	0.000003	-0.000002	0.000000	0.000000	0.000000	0.000000	0.000000	0.000000	0.000000	0.000000	0.000000	0.000000	0.000000	0.000000	0.000000	0.000000	0.000000	0.000000	0.000000	0.000000	0.000000	0.000000	0.000000	0.000000	0.000000	0.000000	0.000000	0.000000	0.000000	0.000000	0.000000	0.000000	0.000000	0.000000	0.000000	0.000000	0.000000	0.000000	0.000000	0.000000	0.000000	0.000000	0.000000	0.000000	0.000000	0.000000	0.000000	0.000000	0.000000	-0.000001	8.389038	11.015410	-7.262319	51.086970	0.073733	23.865770	-0.006130	0.000000	0.000000	0.000000	0.000001	0.000000	-0.000003	0.000000	0.000002	0.000003	0.000001	0.000000	-0.000003	0.000001	0.000000	-0.000003	0.000000	0.000002	0.000003	0.000001	0.000000	-0.000003	0.000001	0.000000	-0.000003	0.000000	0.000002	0.000003	0.000001	0.000000	-0.000003	0.000001	0.000000	-0.000003	0.000000	0.000002	0.000003	0.000001	0.000000	-0.000003	0.000001	0.000000	-0.000003	0.000000	0.000002	0.000003	0.000001	0.000000	-0.000003	-12.376860	-11.659620	-4.990190	14.166450	0.000003	-0.000001	10.987320	-5.197778	-1.898819	-0.099999	0.000000	0.000000	-8.088997	0.321929	1.653178	2.164805	-0.000001	0.000000	0.227900	-2.802878	-1.331866	0.000000	0.000000	0.000000
	-54.2062	95.7297	-137.3986	0.327794	29.353780	-0.605234	0.000000	0.000000	0.000000	0.408976	-0.039416	-0.457588	1.359271	-0.145260	-1.524152	0.576064	-0.324023	1.215345	1.053779	-0.186544	9.163530	0.000000	-0.000002	-11.308550	36.071580	-35.840090	-45.090890	0.151922	-42.721150	0.039726	0.000001	0.000000	-0.000001	0.000000	-0.000001	0.000000	0.000002	-0.000001	0.000004	0.000000	0.000000	0.000000	0.000000	-0.000001	0.000000	0.000002	-0.000001	0.000004	0.000000	0.000000	0.000000	0.000000	-0.000001	0.000000	0.000002	-0.000001	0.000004	0.000000	0.000000	0.000000	0.000000	-0.000001	0.000000	0.000002	-0.000001	0.000004	0.000000	0.000000	0.000000	0.000000	-0.000001	0.000000	0.000002	-0.000001	0.000004	0.000000	0.000000	0.000000	0.000000	-0.000004	7.662498	9.059606	-12.882950	43.568810	0.079821	26.294970	-0.009156	0.000000	0.000000	0.000000	0.000000	0.000000	0.000000	0.000000	0.000000	0.000000	0.000000	0.000000	0.000000	0.000000	0.000000	0.000000	0.000000	0.000000	0.000000	0.000000	0.000000	0.000000	0.000000	0.000000	0.000000	0.000000	0.000000	0.000000	0.000000	0.000000	0.000000	0.000000	0.000000	0.000000	0.000000	0.000000	0.000000	0.000000	0.000000	0.000000	0.000000	0.000000	0.000000	0.000000	0.000000	0.000000	0.000000	0.000000	0.000000	-12.446560	-12.092930	-5.446988	14.421540	-0.000002	0.000000	12.596760	-5.615171	-1.956363	-0.350001	0.000000	0.000000	-8.137300	0.390158	1.314035	2.046129	-0.000002	0.000000	0.486998	-2.859141	-1.352357	0.000000	-0.000002	0.000000
	-53.8383	95.8209	-137.4367	0.463932	30.239540	-0.721693	0.000000	-0.000005	0.000000	0.346314	-0.075561	-0.447805	1.149403	-0.263449	-1.490880	0.570800	-0.308437	1.156638	1.109178	-0.165847	8.339030	0.000000	-0.000006	-11.205990	36.332180	-35.072170	-44.217490	0.152534	-42.548840	0.039077	-0.000002	-0.000003	0.000000	0.000000	-0.000001	-0.000001	0.000000	-0.000001	0.000000	0.000000	-0.000001	0.000000	0.000000	-0.000001	-0.000001	0.000000	-0.000001	0.000000	0.000000	-0.000001	0.000000	0.000000	-0.000001	-0.000001	0.000000	-0.000001	0.000000	0.000000	-0.000001	0.000000	0.000000	-0.000001	-0.000001	0.000000	-0.000001	0.000000	0.000000	-0.000001	0.000000	0.000000	-0.000001	-0.000001	0.000000	-0.000001	0.000000	0.000000	-0.000001	0.000000	0.000000	-0.000004	6.845350	6.101672	-19.167480	35.109600	0.094829	31.039260	-0.015894	0.000001	0.000000	0.000000	0.000000	0.000000	0.000000	0.000000	0.000000	0.000000	0.000000	0.000000	0.000000	0.000000	0.000000	0.000000	0.000000	0.000000	0.000000	0.000000	0.000000	0.000000	0.000000	0.000000	0.000000	0.000000	0.000000	0.000000	0.000000	0.000000	0.000000	0.000000	0.000000	0.000000	0.000000	0.000000	0.000000	0.000000	0.000000	0.000000	0.000000	0.000000	0.000000	0.000000	0.000000	0.000000	0.000000	0.000000	0.000000	-12.604130	-12.319770	-5.782548	14.852060	0.000002	0.000000	14.062470	-5.780786	-1.936754	-0.700001	0.000000	0.000000	-8.185018	0.406786	1.106516	2.060245	-0.000002	0.000001	0.647871	-2.534493	-1.194522	0.000000	0.000000	0.000000
